<svg width="1560" height="1559" xmlns="http://www.w3.org/2000/svg" xmlns:xlink="http://www.w3.org/1999/xlink" xml:space="preserve" overflow="hidden"><defs><clipPath id="clip0"><rect x="1420" y="458" width="1560" height="1559"/></clipPath><clipPath id="clip1"><rect x="2159" y="1237" width="780" height="781"/></clipPath><clipPath id="clip2"><rect x="2159" y="1237" width="780" height="781"/></clipPath><clipPath id="clip3"><rect x="2159" y="1237" width="780" height="781"/></clipPath></defs><g clip-path="url(#clip0)" transform="translate(-1420 -458)"><path d="M178.635 487.188 779.5 487.188 1380.36 487.188 1380.36 292.313 178.635 292.313Z" transform="matrix(1.00064 0 0 1 1420 458)"/><path d="M178.635 876.938 779.5 876.938 1380.36 876.938 1380.36 682.063 178.635 682.063Z" transform="matrix(1.00064 0 0 1 1420 458)"/><path d="M178.635 1266.69 779.5 1266.69 1380.36 1266.69 1380.36 1071.81 178.635 1071.81Z" transform="matrix(1.00064 0 0 1 1420 458)"/><rect x="2203" y="1281" width="598" height="507" fill="#FFFFFF"/><g clip-path="url(#clip1)"><g clip-path="url(#clip2)"><g clip-path="url(#clip3)"><path d="M555.849 357.042 454.417 357.042 454.417 129.833 324.583 129.833 324.583 357.042 223.151 357.042 389.5 551.792Z" transform="matrix(1 0 0 1 2159 1238)"/><path d="M592.365 454.417 592.365 600.479 186.635 600.479 186.635 454.417 137.948 454.417 137.948 649.167 641.052 649.167 641.052 454.417Z" transform="matrix(1 0 0 1 2159 1238)"/></g></g></g></g></svg>